#!Matlab matrix to amc conversion
:FULLY-SPECIFIED
:DEGREES
91
root -1.456092 0.603342 35.307732 8.573195 -6.239049 -5.110439
lowerback -5.888818 2.885229 2.400027
upperback -1.177191 3.590259 2.951491
thorax 1.999135 1.808989 1.973016
lowerneck -23.894529 -4.224246 -12.380300
upperneck 24.764777 -4.889554 11.953295
head 12.844872 -1.753020 5.894575
rclavicle -0.000000 -0.000000
rhumerus -23.756065 26.101096 -82.650388
rradius 43.046526
rwrist -20.829261
rhand -28.856200 -18.800500
rfingers 7.125020
rthumb -2.212790 -48.768800
lclavicle -0.000000 -0.000000
lhumerus -50.790459 25.530962 60.295822
lradius 10.376686
lwrist -41.029600
lhand -19.668800 -28.799300
lfingers 7.125020
lthumb 6.659510 1.076010
rfemur 9.625390 -0.743611 30.111513
rtibia 1.367660
rfoot -8.802231 9.524343
rtoes -20.766800
lfemur -40.243955 4.109077 -13.717251
ltibia 16.319783
lfoot -8.079352 21.453339
ltoes -22.051700
92
root -1.452290 0.547442 35.695508 8.986227 -7.282593 -5.413167
lowerback -6.340336 3.259481 2.734980
upperback -1.059106 4.034145 2.921027
thorax 2.395637 2.036153 1.815226
lowerneck -24.165271 -4.191334 -12.263604
upperneck 25.011223 -4.816221 11.722722
head 12.963867 -1.728742 5.810849
rclavicle -0.000000 -0.000000
rhumerus -21.673756 26.866380 -81.971443
rradius 44.609809
rwrist -21.844284
rhand -28.856200 -18.800500
rfingers 7.125020
rthumb -2.212790 -48.768800
lclavicle -0.000000 -0.000000
lhumerus -52.773231 25.371711 58.397282
lradius 9.747896
lwrist -41.680817
lhand -19.668800 -28.799300
lfingers 7.125020
lthumb 6.659510 1.076010
rfemur 13.787828 0.022372 29.813869
rtibia -3.817656
rfoot -6.609679 9.454476
rtoes -20.766800
lfemur -40.309154 2.927709 -12.619415
ltibia 11.502306
lfoot -7.535045 21.508387
ltoes -22.051700
93
root -1.452433 0.483904 36.099375 9.199750 -7.931033 -5.792787
lowerback -6.698049 3.498062 3.091909
upperback -0.965795 4.307253 2.936179
thorax 2.717194 2.176015 1.674506
lowerneck -24.363715 -4.144827 -12.163042
upperneck 25.204769 -4.746862 11.588523
head 13.054437 -1.698240 5.764632
rclavicle -0.000000 -0.000000
rhumerus -20.039294 27.352225 -81.583901
rradius 45.687554
rwrist -22.432470
rhand -28.856200 -18.800500
rfingers 7.125020
rthumb -2.212790 -48.768800
lclavicle -0.000000 -0.000000
lhumerus -53.967319 24.456382 57.832354
lradius 8.979789
lwrist -41.420906
lhand -19.668800 -28.799300
lfingers 7.125020
lthumb 6.659510 1.076010
rfemur 17.342935 0.750811 29.685379
rtibia -7.820469
rfoot -4.578776 9.221052
rtoes -20.766800
lfemur -40.368830 2.414006 -12.005780
ltibia 9.551793
lfoot -7.162211 20.560441
ltoes -22.051700
94
root -1.455316 0.417719 36.520651 9.218921 -8.133011 -6.233967
lowerback -6.904545 3.591635 3.462072
upperback -0.903964 4.400475 2.993406
thorax 2.923594 2.223753 1.547537
lowerneck -24.424338 -4.093316 -12.128003
upperneck 25.245333 -4.684343 11.592397
head 13.070654 -1.664208 5.774704
rclavicle -0.000000 -0.000000
rhumerus -18.941473 27.564002 -81.462209
rradius 46.405610
rwrist -22.607300
rhand -28.856200 -18.800500
rfingers 7.125020
rthumb -2.212790 -48.768800
lclavicle -0.000000 -0.000000
lhumerus -54.564431 23.130200 58.242326
lradius 8.085281
lwrist -40.456910
lhand -19.668800 -28.799300
lfingers 7.125020
lthumb 6.659510 1.076010
rfemur 19.905423 1.254796 29.694338
rtibia -9.899911
rfoot -2.735432 9.050329
rtoes -20.766800
lfemur -40.521199 2.438624 -11.852047
ltibia 9.907910
lfoot -7.034843 18.531063
ltoes -22.051700
95
root -1.457877 0.354618 36.958909 9.110212 -8.035034 -6.666777
lowerback -6.984500 3.591843 3.789000
upperback -0.874038 4.382603 3.063003
thorax 3.023665 2.214422 1.441284
lowerneck -24.380152 -4.051286 -12.147533
upperneck 25.171241 -4.641801 11.691739
head 13.033363 -1.635778 5.821997
rclavicle -0.000000 -0.000000
rhumerus -18.299141 27.556883 -81.506687
rradius 46.936936
rwrist -22.512720
rhand -28.856200 -18.800500
rfingers 7.125020
rthumb -2.212790 -48.768800
lclavicle -0.000000 -0.000000
lhumerus -54.872397 21.703988 59.089315
lradius 7.115529
lwrist -39.159739
lhand -19.668800 -28.799300
lfingers 7.125020
lthumb 6.659510 1.076010
rfemur 21.699196 1.543141 29.737188
rtibia -10.453202
rfoot -0.936463 8.966451
rtoes -20.766800
lfemur -40.770875 2.827007 -12.048765
ltibia 11.676283
lfoot -6.824665 15.993115
ltoes -22.051700
96
root -1.457686 0.298573 37.412311 8.933542 -7.803388 -6.992958
lowerback -6.984401 3.550680 3.978162
upperback -0.878486 4.324993 3.108047
thorax 3.034773 2.184127 1.377921
lowerneck -24.295309 -4.030517 -12.186426
upperneck 25.074615 -4.634069 11.825945
head 12.988346 -1.622047 5.878966
rclavicle -0.000000 -0.000000
rhumerus -18.027861 27.362505 -81.640355
rradius 47.380157
rwrist -22.254239
rhand -28.856200 -18.800500
rfingers 7.125020
rthumb -2.212790 -48.768800
lclavicle -0.000000 -0.000000
lhumerus -55.107506 20.396515 59.960686
lradius 6.105613
lwrist -37.884573
lhand -19.668800 -28.799300
lfingers 7.125020
lthumb 6.659510 1.076010
rfemur 23.151193 1.723017 29.695054
rtibia -10.258396
rfoot 1.008884 8.856188
rtoes -20.766800
lfemur -41.070979 3.479970 -12.539588
ltibia 14.269851
lfoot -6.103503 13.511293
ltoes -22.051700
97
root -1.454064 0.251815 37.878038 8.723744 -7.551917 -7.082902
lowerback -6.942667 3.498931 3.889190
upperback -0.925022 4.275848 3.087299
thorax 2.962569 2.156684 1.398022
lowerneck -24.223842 -4.041341 -12.211160
upperneck 25.041100 -4.677652 11.949372
head 12.978161 -1.631612 5.923708
rclavicle -0.000000 -0.000000
rhumerus -18.112438 26.962709 -81.832440
rradius 47.753277
rwrist -21.857436
rhand -28.856200 -18.800500
rfingers 7.125020
rthumb -2.212790 -48.768800
lclavicle -0.000000 -0.000000
lhumerus -55.368761 19.325081 60.631995
lradius 5.081414
lwrist -36.860797
lhand -19.668800 -28.799300
lfingers 7.125020
lthumb 6.659510 1.076010
rfemur 24.655541 1.915606 29.431121
rtibia -10.027972
rfoot 3.316399 8.552392
rtoes -20.766800
lfemur -41.343313 4.368280 -13.367960
ltibia 17.408035
lfoot -4.427513 11.447092
ltoes -22.051700
98
root -1.448232 0.215730 38.352218 8.485937 -7.306548 -6.770935
lowerback -6.870578 3.436708 3.336926
upperback -1.024843 4.247802 2.956270
thorax 2.792667 2.137447 1.559047
lowerneck -24.181588 -4.093218 -12.210329
upperneck 25.109708 -4.788175 12.047788
head 13.022347 -1.671941 5.948096
rclavicle 0.000000 -0.000000
rhumerus -18.626455 26.284483 -82.107594
rradius 47.990632
rwrist -21.290139
rhand -28.856200 -18.800500
rfingers 7.125020
rthumb -2.212790 -48.768800
lclavicle 0.000000 -0.000000
lhumerus -55.630077 18.460409 61.117409
lradius 4.117684
lwrist -36.067786
lhand -19.668800 -28.799300
lfingers 7.125020
lthumb 6.659510 1.076010
rfemur 26.329969 2.167358 28.776311
rtibia -9.984414
rfoot 6.197440 7.905002
rtoes -20.766800
lfemur -41.469857 5.480627 -14.682484
ltibia 20.944794
lfoot -1.505508 9.864618
ltoes -22.051700
99
root -1.442527 0.191941 38.829415 8.189624 -6.976536 -5.937200
lowerback -6.728970 3.330389 2.207067
upperback -1.176678 4.204308 2.688490
thorax 2.501016 2.107586 1.891679
lowerneck -24.118844 -4.186603 -12.219110
upperneck 25.221748 -4.962276 12.151701
head 13.090837 -1.742265 5.967397
rclavicle 0.000000 -0.000000
rhumerus -19.662526 25.242499 -82.526979
rradius 47.982933
rwrist -20.554296
rhand -28.856200 -18.800500
rfingers 7.125020
rthumb -2.212790 -48.768800
lclavicle 0.000000 -0.000000
lhumerus -55.742644 17.614143 61.683710
lradius 3.371498
lwrist -35.150694
lhand -19.668800 -28.799300
lfingers 7.125020
lthumb 6.659510 1.076010
rfemur 27.600227 2.296549 27.575999
rtibia -9.101749
rfoot 9.733434 6.941649
rtoes -20.766800
lfemur -41.296146 6.696601 -16.608588
ltibia 24.572862
lfoot 2.241051 8.386191
ltoes -22.051700
100
root -1.437727 0.183131 39.302679 7.785673 -6.438310 -4.718478
lowerback -6.439305 3.147988 0.729834
upperback -1.341533 4.083802 2.322189
thorax 2.099695 2.038571 2.300372
lowerneck -23.952097 -4.293894 -12.303939
upperneck 25.251582 -5.146348 12.302864
head 13.114508 -1.821136 6.011370
rclavicle 0.000000 -0.000000
rhumerus -21.122776 23.888699 -83.095045
rradius 47.737677
rwrist -19.846492
rhand -28.856200 -18.800500
rfingers 7.125020
rthumb -2.212790 -48.768800
lclavicle 0.000000 -0.000000
lhumerus -55.539756 16.649036 62.602524
lradius 2.964145
lwrist -33.730028
lhand -19.668800 -28.799300
lfingers 7.125020
lthumb 6.659510 1.076010
rfemur 27.110930 1.841364 25.863855
rtibia -4.915038
rfoot 13.631286 6.026085
rtoes -20.766800
lfemur -40.723496 7.688592 -18.923471
ltibia 27.648948
lfoot 5.150058 6.393075
ltoes -22.051700
101
root -1.429403 0.192354 39.765921 7.277861 -5.783189 -3.508815
lowerback -5.982415 2.927132 -0.550273
upperback -1.465718 3.891425 1.956394
thorax 1.663041 1.937765 2.588934
lowerneck -23.689559 -4.362098 -12.466970
upperneck 25.216701 -5.253386 12.458340
head 13.084686 -1.874277 6.078996
rclavicle 0.000000 -0.000000
rhumerus -22.635933 22.537916 -83.717670
rradius 47.426028
rwrist -19.532649
rhand -28.856200 -18.800500
rfingers 7.125020
rthumb -2.212790 -48.768800
lclavicle 0.000000 -0.000000
lhumerus -55.013163 15.728159 63.788529
lradius 2.863612
lwrist -32.014891
lhand -19.668800 -28.799300
lfingers 7.125020
lthumb 6.659510 1.076010
rfemur 24.017735 0.549379 23.970049
rtibia 3.955249
rfoot 17.124532 5.471818
rtoes -20.766800
lfemur -39.840596 8.211660 -21.058671
ltibia 29.741743
lfoot 5.566860 3.892125
ltoes -22.051700
